<?xml version="1.0" encoding="iso-8859-1"?>
<!-- Generator: Adobe Illustrator 18.1.1, SVG Export Plug-In . SVG Version: 6.00 Build 0)  -->
<svg version="1.1" id="Capa_1" xmlns="http://www.w3.org/2000/svg" xmlns:xlink="http://www.w3.org/1999/xlink" x="0px" y="0px"
	 viewBox="0 0 415.703 415.703" style="enable-background:new 0 0 415.703 415.703;" xml:space="preserve">
<g>
	<g>
		<g>
			<path style="fill:#010002;" d="M207.856,210.229c-17.932,0-32.514-14.583-32.514-32.506c0-17.932,14.583-32.522,32.514-32.522
				s32.514,14.591,32.514,32.522C240.37,195.647,225.787,210.229,207.856,210.229z M207.856,161.458
				c-8.966,0-16.257,7.291-16.257,16.265c0,8.958,7.291,16.249,16.257,16.249c8.966,0,16.257-7.291,16.257-16.249
				C224.113,168.757,216.822,161.458,207.856,161.458z"/>
		</g>
	</g>
	<g>
		<g>
			<path style="fill:#010002;" d="M289.142,210.229c-17.932,0-32.514-14.583-32.514-32.506c0-17.932,14.583-32.522,32.514-32.522
				s32.514,14.591,32.514,32.522C321.656,195.647,307.073,210.229,289.142,210.229z M289.142,161.458
				c-8.966,0-16.257,7.291-16.257,16.265c0,8.958,7.291,16.249,16.257,16.249s16.257-7.291,16.257-16.249
				C305.399,168.757,298.107,161.458,289.142,161.458z"/>
		</g>
	</g>
	<g>
		<g>
			<path style="fill:#010002;" d="M126.57,210.229c-17.932,0-32.514-14.583-32.514-32.506c0-17.932,14.583-32.522,32.514-32.522
				s32.514,14.591,32.514,32.522C159.084,195.647,144.502,210.229,126.57,210.229z M126.57,161.458
				c-8.966,0-16.257,7.291-16.257,16.265c0,8.958,7.291,16.249,16.257,16.249s16.257-7.291,16.257-16.249
				C142.827,168.757,135.536,161.458,126.57,161.458z"/>
		</g>
	</g>
	<g>
		<path style="fill:#010002;" d="M352.821,392.846l-78.555-78.555H0V22.858h415.703v291.434h-62.883V392.846z M16.257,298.034
			h264.74l55.567,55.567v-55.567h62.883V39.115H16.257V298.034z"/>
	</g>
</g>
<g>
</g>
<g>
</g>
<g>
</g>
<g>
</g>
<g>
</g>
<g>
</g>
<g>
</g>
<g>
</g>
<g>
</g>
<g>
</g>
<g>
</g>
<g>
</g>
<g>
</g>
<g>
</g>
<g>
</g>
</svg>
