<?xml version="1.0" encoding="utf-8"?>
<!-- Generator: Adobe Illustrator 16.0.0, SVG Export Plug-In . SVG Version: 6.00 Build 0)  -->
<!DOCTYPE svg PUBLIC "-//W3C//DTD SVG 1.1//EN" "http://www.w3.org/Graphics/SVG/1.1/DTD/svg11.dtd">
<svg version="1.1" id="Layer_1" xmlns="http://www.w3.org/2000/svg" xmlns:xlink="http://www.w3.org/1999/xlink" x="0px" y="0px"
	 width="512px" height="512px" viewBox="0 0 512 512" enable-background="new 0 0 512 512" xml:space="preserve">
<path d="M388.191,202.176h-15.404v-16.398c0-15.116-7.282-28.436-18.386-37.051c7.105-5.758,11.546-13.392,11.546-21.847
	c0-11.416-7.962-21.397-19.914-27.146c1.025-3.76,1.742-7.668,1.742-11.755c0-24.997-20.258-45.253-45.254-45.253
	c-11.17,0-21.267,4.202-29.164,10.91c-0.049-25.045-20.338-45.302-45.398-45.302c-22.082,0-40.433,15.763-44.521,36.654
	c-4.723-1.319-9.605-2.263-14.752-2.263c-48.686,0-56.811,48.526-54.715,56.929c-0.064,0-0.129-0.017-0.195-0.017
	c-19.134,0-34.635,13.223-34.635,29.522c0,8.563,4.346,16.211,11.178,21.604c-9.688,8.625-15.916,21.048-15.916,35.015v249.615
	c0,38.317,31.184,69.5,69.498,69.5h159.387c38.2,0,69.275-31.003,69.465-69.158h15.439c38.316,0,69.5-31.183,69.5-69.515v-94.543
	C457.691,233.359,426.508,202.176,388.191,202.176z M322.764,435.393c0,10.732-8.746,19.476-19.477,19.476H143.9
	c-10.73,0-19.475-8.744-19.475-19.476V188.741h2.084c69.332,0,8.125,146.425,42.176,146.425c35.066,0-44.26-146.425,53.482-146.425
	c28.352,0,100.596,0,100.596,0v38.447v183.535V435.393z M407.668,366.219c0,10.747-8.744,19.491-19.477,19.491h-15.404V252.2h15.404
	c10.732,0,19.477,8.744,19.477,19.476V366.219z"/>
</svg>
