<?xml version="1.0" encoding="iso-8859-1"?>
<!-- Generator: Adobe Illustrator 16.0.0, SVG Export Plug-In . SVG Version: 6.00 Build 0)  -->
<!DOCTYPE svg PUBLIC "-//W3C//DTD SVG 1.1//EN" "http://www.w3.org/Graphics/SVG/1.1/DTD/svg11.dtd">
<svg version="1.1" id="Capa_1" xmlns="http://www.w3.org/2000/svg" xmlns:xlink="http://www.w3.org/1999/xlink" x="0px" y="0px"
	 width="202.915px" height="202.915px" viewBox="0 0 202.915 202.915" style="enable-background:new 0 0 202.915 202.915;"
	 xml:space="preserve">
<g>
	<path d="M161.259,73.502V21.997c0.926-0.46,1.645-1.221,1.645-2.314V2.786c0-1.532-1.218-2.786-2.771-2.786h-27.639
		c-1.547,0-2.765,1.254-2.765,2.786v16.897c0,1.099,0.73,1.873,1.656,2.326v51.493c-11.436,5.66-18.693,17.29-18.693,30.117v96.519
		c0,1.522,1.224,2.777,2.771,2.777h61.726c1.559,0,2.765-1.255,2.765-2.777v-96.519C179.953,90.798,172.7,79.18,161.259,73.502z
		 M135.259,5.574h22.091v11.329h-22.091V5.574z M174.412,197.35h-56.203v-93.73c0-11.22,6.686-21.346,17.019-25.785
		c1.029-0.435,1.688-1.44,1.688-2.557V23.288h18.809v51.989c0,1.117,0.652,2.122,1.663,2.557
		c10.345,4.458,17.031,14.578,17.031,25.785L174.412,197.35L174.412,197.35z M123.251,112.101v60.271
		c0,1.534,1.205,2.776,2.764,2.776h40.566c1.547,0,2.765-1.242,2.765-2.776v-60.271c0-1.534-1.218-2.788-2.765-2.788h-40.566
		C124.456,109.312,123.251,110.566,123.251,112.101z M128.792,114.878h35.024v54.692h-35.024V114.878z M73.173,86.919
		c-1.303-5.772-6.61-10.108-12.924-10.108c-7.146,0-17.455,4.241-17.455,11.892v0.012c-13.709,0.125-19.833,7.514-19.833,14.849
		c0,4.299,3.279,7.909,8.391,10.399C31.25,114.269,31,114.5,31,114.835c0,16.447,2.935,52.514,7.8,65.062l-0.761,1.522
		c-2.457,4.786-4.046,7.946-4.046,16.489c0,1.535,1.221,2.789,2.768,2.789h39.619c1.546,0,2.768-1.254,2.768-2.789
		c0-8.598-1.632-11.776-4.095-16.574l-0.706-1.425c4.944-12.665,7.663-47.702,7.77-64.027c5.979-2.149,10.288-7.642,10.288-14.194
		C92.409,92.126,83.007,84.252,73.173,86.919z M68.771,181.226l1.342,2.643c2,3.885,3.142,6.107,3.422,11.259H39.628
		c0.299-5.134,1.465-7.435,3.368-11.168l1.391-2.733c0.387-0.756,0.387-1.633,0.024-2.387c-4.396-9.469-7.706-44.11-7.818-62.89
		c3.255,0.89,6.82,1.468,10.781,1.468c7.362,0,14.072-1.826,18.612-4.957c2.874,2.82,6.604,4.391,10.555,4.445
		c-0.204,19.011-3.486,52.653-7.8,61.921C68.378,179.593,68.378,180.47,68.771,181.226z M76.76,111.37
		c-3.182,0-6.168-1.595-8.181-4.396c-0.463-0.663-1.185-1.084-2.009-1.156c-0.728-0.109-1.571,0.219-2.208,0.791
		c-3.233,3.179-9.913,5.225-17.007,5.225c-10.79,0-18.858-4.359-18.858-8.269c0-4.622,4.546-9.28,14.629-9.28
		c0.487,0,0.91,0.067,1.352,0.125c0.512,0.067,1.035,0.137,1.581,0.174c0.953,0.137,1.827-0.381,2.368-1.13
		c0.566-0.746,0.704-1.727,0.381-2.606c-0.326-0.883-0.451-1.534-0.451-2.143c0-3.194,6.823-6.318,11.898-6.318
		c4.238,0,7.681,3.285,7.639,7.308c-0.064,0.164-0.219,0.91-0.244,1.074c-0.112,1.035,0.354,2.052,1.215,2.637
		c0.874,0.585,1.976,0.624,2.914,0.125c1.845-1.041,3.447-1.522,5-1.522c5.574,0,10.108,4.348,10.108,9.694
		C86.868,107.028,82.341,111.37,76.76,111.37z M62.356,174.722c-0.244,0.487-0.731,0.768-1.242,0.768
		c-0.216,0-0.436-0.049-0.633-0.141c-0.682-0.358-0.95-1.175-0.624-1.881c9.584-19.126,7.414-56.295,7.395-56.678
		c-0.064-0.756,0.536-1.425,1.303-1.455c0.024,0,0.049,0,0.085,0c0.73,0,1.331,0.548,1.385,1.303
		C70.138,118.185,72.275,154.92,62.356,174.722z"/>
</g>
<g>
</g>
<g>
</g>
<g>
</g>
<g>
</g>
<g>
</g>
<g>
</g>
<g>
</g>
<g>
</g>
<g>
</g>
<g>
</g>
<g>
</g>
<g>
</g>
<g>
</g>
<g>
</g>
<g>
</g>
</svg>
