<?xml version="1.0" encoding="iso-8859-1"?>
<!-- Generator: Adobe Illustrator 16.0.0, SVG Export Plug-In . SVG Version: 6.00 Build 0)  -->
<!DOCTYPE svg PUBLIC "-//W3C//DTD SVG 1.1//EN" "http://www.w3.org/Graphics/SVG/1.1/DTD/svg11.dtd">
<svg version="1.1" id="Capa_1" xmlns="http://www.w3.org/2000/svg" xmlns:xlink="http://www.w3.org/1999/xlink" x="0px" y="0px"
	 width="40.891px" height="40.891px" viewBox="0 0 40.891 40.891" style="enable-background:new 0 0 40.891 40.891;"
	 xml:space="preserve">
<g>
	<path d="M2.403,18.041c0,9.857,16.954,22.209,17.675,22.729c0.107,0.078,0.233,0.121,0.367,0.121c0.134,0,0.261-0.043,0.366-0.119
		c0.722-0.521,17.676-12.873,17.676-22.73C38.487,8.093,30.394,0,20.445,0C10.496,0,2.403,8.093,2.403,18.041z M37.237,18.041
		c0,8.493-14.746,19.902-16.792,21.445C18.399,37.943,3.653,26.534,3.653,18.041c0-9.259,7.533-16.791,16.792-16.791
		C29.704,1.25,37.237,8.783,37.237,18.041z"/>
	<path d="M18.127,10.26c0,1.565,1.001,2.617,2.492,2.617s2.493-1.052,2.493-2.617c0-1.564-1.002-2.615-2.493-2.615
		C19.129,7.645,18.127,8.696,18.127,10.26z M20.619,8.895c0.79,0,1.243,0.498,1.243,1.365c0,0.869-0.453,1.367-1.243,1.367
		c-0.789,0-1.242-0.498-1.242-1.367C19.377,9.393,19.83,8.895,20.619,8.895z"/>
	<path d="M22.772,14.307c0-0.345-0.279-0.625-0.625-0.625h-5.773c-0.345,0-0.625,0.28-0.625,0.625v1.504
		c0,0.345,0.28,0.625,0.625,0.625h2.003v9.814c0,0.346,0.28,0.625,0.625,0.625h6.272c0.346,0,0.625-0.279,0.625-0.625v-3.01
		c0-0.346-0.279-0.625-0.625-0.625h-2.502V14.307z M24.649,23.866v1.76h-5.022v-9.814c0-0.345-0.28-0.625-0.625-0.625h-2.003v-0.254
		h4.523v8.309c0,0.345,0.281,0.625,0.625,0.625L24.649,23.866L24.649,23.866z"/>
</g>
<g>
</g>
<g>
</g>
<g>
</g>
<g>
</g>
<g>
</g>
<g>
</g>
<g>
</g>
<g>
</g>
<g>
</g>
<g>
</g>
<g>
</g>
<g>
</g>
<g>
</g>
<g>
</g>
<g>
</g>
</svg>
